<svg width="23" height="16" viewBox="0 0 23 16" fill="none" xmlns="http://www.w3.org/2000/svg">
<path d="M4.66358 7.00021H21.7494C22.0146 7.00021 22.269 7.10557 22.4565 7.29311L22.2797 7.46989L22.4565 7.29311C22.644 7.48065 22.7494 7.735 22.7494 8.00021C22.7494 8.26543 22.644 8.51979 22.4565 8.70732L22.2797 8.53055L22.4565 8.70732C22.269 8.89486 22.0146 9.00021 21.7494 9.00021H4.66358L8.95714 13.2924L8.95716 13.2924C9.05011 13.3854 9.12384 13.4957 9.17414 13.6172C9.22444 13.7386 9.25033 13.8688 9.25033 14.0002C9.25033 14.1317 9.22444 14.2618 9.17414 14.3833C9.12384 14.5047 9.05011 14.615 8.95716 14.708C8.86422 14.8009 8.75388 14.8747 8.63243 14.925C8.51099 14.9753 8.38083 15.0012 8.24939 15.0012C8.11794 15.0012 7.98778 14.9753 7.86634 14.925C7.7449 14.8747 7.63456 14.8009 7.54161 14.708L1.54183 8.70821L4.66358 7.00021ZM4.66358 7.00021L8.95714 2.70802L8.95716 2.70799C9.05011 2.61505 9.12384 2.5047 9.17414 2.38326C9.22444 2.26182 9.25033 2.13166 9.25033 2.00021C9.25033 1.86877 9.22444 1.73861 9.17414 1.61717C9.12384 1.49573 9.05011 1.38538 8.95716 1.29244C8.86422 1.19949 8.75387 1.12576 8.63243 1.07546C8.51099 1.02516 8.38083 0.999268 8.24939 0.999268C8.11794 0.999268 7.98778 1.02516 7.86634 1.07546C7.7449 1.12576 7.63456 1.19949 7.54161 1.29244L1.54183 7.29221L4.66358 7.00021ZM1.32441 7.61695C1.37478 7.49556 1.44859 7.38528 1.54161 7.29244L1.32441 7.61695ZM1.32441 7.61695C1.274 7.73844 1.24805 7.86868 1.24805 8.00021M1.32441 7.61695L1.24805 8.00021M1.24805 8.00021C1.24805 8.13175 1.274 8.26199 1.32441 8.38348M1.24805 8.00021L1.32441 8.38348M1.32441 8.38348C1.37478 8.50487 1.44859 8.61515 1.54161 8.70799L1.32441 8.38348Z" fill="#777777" stroke="#777777" stroke-width="0.5"/>
</svg>
