<svg width="18" height="17" viewBox="0 0 18 17" fill="none" xmlns="http://www.w3.org/2000/svg">
<path d="M8.90033 6.11663C9.96699 6.16663 10.242 7.07496 10.2587 7.49996H11.7503C11.6837 5.84996 10.5087 4.84163 8.87533 4.84163C7.03366 4.84163 5.66699 5.99996 5.66699 8.61663C5.66699 10.2333 6.44199 12.15 8.86699 12.15C10.717 12.15 11.7087 10.775 11.7337 9.69163H10.242C10.217 10.1833 9.86699 10.8416 8.88366 10.8916C7.79199 10.8583 7.33366 10.0083 7.33366 8.61663C7.33366 6.20829 8.40033 6.13329 8.90033 6.11663ZM9.00033 0.166626C4.40033 0.166626 0.666992 3.89996 0.666992 8.49996C0.666992 13.1 4.40033 16.8333 9.00033 16.8333C13.6003 16.8333 17.3337 13.1 17.3337 8.49996C17.3337 3.89996 13.6003 0.166626 9.00033 0.166626ZM9.00033 15.1666C5.32533 15.1666 2.33366 12.175 2.33366 8.49996C2.33366 4.82496 5.32533 1.83329 9.00033 1.83329C12.6753 1.83329 15.667 4.82496 15.667 8.49996C15.667 12.175 12.6753 15.1666 9.00033 15.1666Z" fill="#969696"/>
</svg>
