<svg width="218" height="172" viewBox="0 0 218 172" fill="none" xmlns="http://www.w3.org/2000/svg">
<path d="M153.471 113.371C156.154 108.675 158.167 103.308 158.167 97.2709C158.167 80.5 144.75 67.0834 127.979 67.0834C111.209 67.0834 97.792 80.5 97.792 97.2709C97.792 114.042 111.209 127.458 127.979 127.458C134.017 127.458 139.384 125.446 144.079 122.763L165.546 144.229L174.938 134.838L153.471 113.371ZM127.979 114.042C118.588 114.042 111.209 106.663 111.209 97.2709C111.209 87.8792 118.588 80.5 127.979 80.5C137.371 80.5 144.75 87.8792 144.75 97.2709C144.75 106.663 137.371 114.042 127.979 114.042ZM104.5 134.167V147.583C67.4703 147.583 37.417 117.53 37.417 80.5C37.417 43.47 67.4703 13.4167 104.5 13.4167C136.969 13.4167 164.003 36.4934 170.242 67.0834H156.356C154.263 58.9786 150.304 51.4756 144.795 45.174C139.285 38.8724 132.378 33.947 124.625 30.7913V33.5417C124.625 40.9209 118.588 46.9584 111.209 46.9584H97.792V60.375C97.792 64.0646 94.7732 67.0834 91.0837 67.0834H77.667V80.5H91.0837V100.625H84.3753L52.2424 68.4921C51.3703 72.3829 50.8337 76.3409 50.8337 80.5C50.8337 110.084 74.9166 134.167 104.5 134.167Z" fill="#316FFF"/>
<path fill-rule="evenodd" clip-rule="evenodd" d="M187.052 9.40002H181.967C181.552 9.40002 181.153 9.56508 180.859 9.85889C180.565 10.1527 180.4 10.5512 180.4 10.9667C180.4 11.3822 180.565 11.7807 180.859 12.0745C181.153 12.3683 181.552 12.5334 181.967 12.5334H186.98C190.515 12.5334 193.075 12.5334 195.083 12.6994C197.079 12.8624 198.395 13.1757 199.479 13.7272C201.543 14.7787 203.222 16.4569 204.273 18.5212C204.825 19.6053 205.138 20.9213 205.301 22.9172C205.467 24.9257 205.467 27.4856 205.467 31.02V36.0334C205.467 36.4489 205.632 36.8474 205.926 37.1412C206.22 37.435 206.618 37.6 207.034 37.6C207.449 37.6 207.848 37.435 208.142 37.1412C208.435 36.8474 208.6 36.4489 208.6 36.0334V30.948C208.6 27.5013 208.6 24.8129 208.425 22.6603C208.246 20.4732 207.877 18.6966 207.062 17.0986C205.711 14.4453 203.554 12.2878 200.902 10.9354C199.304 10.1207 197.527 9.75409 195.34 9.57549C193.184 9.40002 190.502 9.40002 187.052 9.40002Z" fill="black"/>
<path fill-rule="evenodd" clip-rule="evenodd" d="M30.9475 162.6L36.0329 162.6C36.4484 162.6 36.8469 162.435 37.1407 162.141C37.4346 161.847 37.5996 161.449 37.5996 161.033C37.5996 160.618 37.4346 160.219 37.1407 159.926C36.8469 159.632 36.4484 159.467 36.0329 159.467L31.0196 159.467C27.4852 159.467 24.9253 159.467 22.9168 159.301C20.9209 159.138 19.6049 158.824 18.5207 158.273C16.4565 157.221 14.7783 155.543 13.7267 153.479C13.1753 152.395 12.8619 151.079 12.699 149.083C12.5329 147.074 12.5329 144.514 12.5329 140.98L12.5329 135.967C12.5329 135.551 12.3679 135.153 12.0741 134.859C11.7803 134.565 11.3818 134.4 10.9663 134.4C10.5508 134.4 10.1523 134.565 9.85848 134.859C9.56467 135.153 9.39961 135.551 9.39961 135.967L9.39961 141.052C9.39961 144.499 9.39961 147.187 9.57508 149.34C9.75367 151.527 10.1234 153.303 10.9381 154.901C12.2892 157.555 14.4456 159.712 17.0982 161.065C18.6962 161.879 20.4728 162.246 22.6599 162.425C24.8156 162.6 27.4977 162.6 30.9475 162.6Z" fill="black"/>
</svg>
