<svg width="168" height="168" viewBox="0 0 168 168" fill="none" xmlns="http://www.w3.org/2000/svg">
<path d="M84.22 163.44C127.973 163.44 163.44 127.973 163.44 84.22C163.44 40.4668 127.973 5 84.22 5C40.4668 5 5 40.4668 5 84.22C5 127.973 40.4668 163.44 84.22 163.44Z" stroke="#316FFF" stroke-width="8.33333" stroke-linecap="round" stroke-linejoin="round"/>
<path d="M108.353 14.9023L84.4923 32.1683V49.4343L115.17 73.6044L132.21 66.7003L142.434 39.0763M60.6352 14.9023L84.4923 32.1683V49.4343L53.8183 73.6044L36.7781 66.7003L26.5508 39.0763" stroke="#316FFF" stroke-width="8.33333" stroke-linecap="round" stroke-linejoin="round"/>
<path d="M12.9219 77.0586L36.779 66.7006L53.8232 73.6046L64.0465 111.591L53.8232 125.403H23.1413" stroke="#316FFF" stroke-width="8.33333" stroke-linecap="round" stroke-linejoin="round"/>
<path d="M53.8203 149.576V125.402L64.0476 111.59H104.945L115.172 125.402V149.576" stroke="#316FFF" stroke-width="8.33333" stroke-linecap="round" stroke-linejoin="round"/>
<path d="M145.845 125.403H115.171L104.943 111.591L115.171 73.6046L132.211 66.7006L159.478 80.5126" stroke="#316FFF" stroke-width="8.33333" stroke-linecap="round" stroke-linejoin="round"/>
</svg>
