<svg width="159" height="159" viewBox="0 0 159 159" fill="none" xmlns="http://www.w3.org/2000/svg">
<path d="M79.22 0C35.5385 0 0 35.5385 0 79.22C0 122.901 35.5385 158.44 79.22 158.44C122.901 158.44 158.44 122.901 158.44 79.22C158.44 35.5385 122.901 0 79.22 0ZM133.684 115.783H116.461C115.927 115.782 115.403 115.64 114.941 115.373C114.48 115.106 114.096 114.722 113.829 114.26L107.682 103.717C107.277 103.028 107.16 102.207 107.355 101.432L113.014 78.6106C113.128 78.1508 113.347 77.7238 113.654 77.3634C113.962 77.0031 114.349 76.7194 114.785 76.5349L125.488 72.0026C126.011 71.7808 126.585 71.7097 127.146 71.7972C127.708 71.8846 128.233 72.1273 128.664 72.4977L144.519 86.1403C144.91 86.4769 145.209 86.9071 145.388 87.3907C145.568 87.8743 145.621 88.3955 145.544 88.9054C144.231 97.9141 141.083 106.558 136.296 114.302C136.026 114.753 135.643 115.127 135.185 115.387C134.727 115.646 134.21 115.783 133.684 115.783ZM32.9525 72.0331L43.6548 76.5654C44.091 76.7499 44.4782 77.0336 44.7856 77.3939C45.0931 77.7542 45.3123 78.1813 45.4258 78.6411L51.0855 101.463C51.2803 102.238 51.1626 103.058 50.7579 103.748L44.6108 114.26C44.3439 114.722 43.9604 115.106 43.4985 115.373C43.0366 115.64 42.5127 115.782 41.979 115.783H24.7563C24.2354 115.783 23.7231 115.65 23.2683 115.396C22.8136 115.142 22.4316 114.776 22.1587 114.332C17.3718 106.588 14.2245 97.9446 12.9113 88.9359C12.8341 88.4259 12.8876 87.9047 13.0668 87.4211C13.246 86.9375 13.545 86.5073 13.9359 86.1708L29.7913 72.5282C30.2205 72.1607 30.7434 71.9197 31.3017 71.8323C31.8599 71.7449 32.4315 71.8144 32.9525 72.0331ZM130.812 38.8064L123.93 58.3752C123.791 58.7752 123.571 59.1419 123.283 59.4521C122.996 59.7622 122.646 60.009 122.258 60.1767L110.992 64.949C110.475 65.1677 109.907 65.2393 109.352 65.156C108.797 65.0727 108.276 64.8376 107.846 64.4767L86.4184 46.5037C86.076 46.2204 85.7997 45.8656 85.6089 45.4643C85.4181 45.063 85.3174 44.6248 85.3139 44.1804V31.3909C85.3141 30.8898 85.438 30.3965 85.6745 29.9547C85.9111 29.5129 86.2529 29.1363 86.6697 28.8582L102.982 17.9883C103.408 17.7041 103.898 17.5318 104.408 17.4872C104.918 17.4426 105.431 17.5272 105.9 17.7331C115.286 21.8269 123.616 28.0061 130.256 35.8013C130.605 36.2089 130.84 36.7014 130.938 37.2291C131.036 37.7568 130.992 38.3009 130.812 38.8064ZM55.454 17.9883L71.7703 28.8582C72.1871 29.1363 72.5289 29.5129 72.7655 29.9547C73.002 30.3965 73.1259 30.8898 73.1262 31.3909V44.1804C73.1261 44.6255 73.0286 45.0652 72.8404 45.4685C72.6522 45.8719 72.378 46.2291 72.0369 46.5151L50.6094 64.4881C50.1794 64.849 49.6581 65.0841 49.103 65.1674C48.5478 65.2508 47.9804 65.1791 47.4634 64.9604L36.1822 60.1767C35.7913 60.0112 35.4392 59.7657 35.1486 59.4562C34.8581 59.1466 34.6354 58.7797 34.495 58.379L27.6127 38.8102C27.4339 38.3029 27.3925 37.7572 27.4929 37.2288C27.5932 36.7003 27.8317 36.2078 28.184 35.8013C34.8282 27.9983 43.1648 21.8136 52.5594 17.7179C53.0262 17.5182 53.5355 17.4384 54.041 17.4856C54.5466 17.5328 55.0323 17.7056 55.454 17.9883ZM62.0468 142.706L54.5323 123.781C54.3605 123.351 54.289 122.887 54.3233 122.425C54.3576 121.963 54.4968 121.515 54.7304 121.115L60.5081 111.213C60.7749 110.751 61.1585 110.367 61.6203 110.099C62.0822 109.832 62.6062 109.69 63.1399 109.689H95.3001C95.8338 109.69 96.3578 109.832 96.8197 110.099C97.2815 110.367 97.6651 110.751 97.9319 111.213L103.713 121.115C103.948 121.515 104.087 121.963 104.122 122.425C104.157 122.887 104.087 123.351 103.915 123.781L96.4542 142.699C96.2717 143.161 95.9788 143.572 95.6011 143.896C95.2233 144.219 94.7722 144.445 94.287 144.554C84.3863 146.826 74.0994 146.826 64.1987 144.554C63.7171 144.443 63.2696 144.217 62.8947 143.896C62.5198 143.574 62.2288 143.166 62.0468 142.706Z" fill="#316FFF"/>
</svg>
