<svg width="159" height="159" viewBox="0 0 159 159" fill="none" xmlns="http://www.w3.org/2000/svg">
<path d="M55.5817 145.965C56.1858 146.62 56.5071 147.487 56.4756 148.378C56.4442 149.268 56.0626 150.11 55.4137 150.721L48.1185 157.543C47.4671 158.148 46.6021 158.47 45.7135 158.438C44.8249 158.406 43.9854 158.022 43.3793 157.371L0.89453 111.585C0.290793 110.93 -0.0298809 110.062 0.00219398 109.172C0.0342688 108.281 0.4165 107.439 1.06583 106.829L8.3711 100.018C8.69345 99.7175 9.07178 99.4838 9.48445 99.33C9.89713 99.1762 10.3361 99.1052 10.7762 99.1212C11.2163 99.1371 11.649 99.2396 12.0495 99.4228C12.45 99.606 12.8105 99.8663 13.1103 100.189L55.5817 145.965ZM109.792 59.8134C110.396 60.4688 110.716 61.336 110.684 62.2266C110.652 63.1171 110.27 63.959 109.621 64.5694L63.7065 107.461C63.0551 108.066 62.19 108.388 61.3014 108.356C60.4128 108.323 59.5733 107.94 58.9673 107.289L48.0077 95.4631C47.4039 94.8077 47.0833 93.9404 47.1153 93.0499C47.1474 92.1593 47.5297 91.3174 48.179 90.7071L94.083 47.8159C94.4051 47.5159 94.7831 47.2824 95.1955 47.1286C95.6079 46.9749 96.0466 46.9039 96.4864 46.9198C96.9263 46.9357 97.3587 47.0382 97.7589 47.2213C98.1591 47.4045 98.5193 47.6648 98.8188 47.9872L109.792 59.8134ZM71.2032 131.365C72.4594 132.718 72.3821 134.858 71.0319 136.121L63.7266 142.939C63.4043 143.239 63.026 143.473 62.6133 143.626C62.2006 143.78 61.7617 143.851 61.3215 143.835C60.8814 143.819 60.4487 143.717 60.0482 143.534C59.6477 143.351 59.2873 143.09 58.9874 142.768L16.5261 96.9813C15.922 96.3262 15.6007 95.4593 15.6322 94.5687C15.6636 93.6782 16.0452 92.836 16.6941 92.2253L23.9859 85.4104C24.6373 84.8052 25.5024 84.4832 26.391 84.5154C27.2796 84.5475 28.1191 84.931 28.7251 85.5817L71.2032 131.365ZM141.949 61.4558C142.552 62.1117 142.872 62.9792 142.839 63.8697C142.806 64.7603 142.424 65.6019 141.774 66.2118L134.472 73.03C133.82 73.6359 132.955 73.9585 132.066 73.927C131.177 73.8955 130.336 73.5125 129.729 72.8621L87.2614 27.0858C86.6564 26.4311 86.3346 25.564 86.366 24.6732C86.3975 23.7824 86.7797 22.9401 87.4293 22.3298L94.7514 15.4947C95.0734 15.1947 95.4515 14.9612 95.8639 14.8074C96.2763 14.6537 96.715 14.5827 97.1548 14.5986C97.5947 14.6145 98.0271 14.717 98.4273 14.9001C98.8275 15.0833 99.1877 15.3435 99.4872 15.666L141.949 61.4558ZM157.547 46.8788C158.15 47.5352 158.47 48.4028 158.438 49.2937C158.406 50.1845 158.024 51.0268 157.375 51.6382L150.087 58.4531C149.765 58.7533 149.387 58.9871 148.975 59.1411C148.562 59.2952 148.124 59.3664 147.684 59.3508C147.244 59.3352 146.812 59.2331 146.411 59.0502C146.011 58.8674 145.651 58.6074 145.351 58.2851L102.89 12.4886C102.286 11.8327 101.965 10.9653 101.997 10.0745C102.028 9.18367 102.409 8.3411 103.058 7.7293L110.353 0.900968C110.674 0.600464 111.052 0.36637 111.464 0.21212C111.876 0.0578704 112.314 -0.0135007 112.754 0.00210233C113.194 0.0177053 113.626 0.119975 114.026 0.303044C114.426 0.486113 114.786 0.746378 115.085 1.06891L157.547 46.8788Z" fill="#316FFF"/>
</svg>
