<svg width="218" height="172" viewBox="0 0 218 172" fill="none" xmlns="http://www.w3.org/2000/svg">
<path fill-rule="evenodd" clip-rule="evenodd" d="M187.052 9.40039H181.967C181.551 9.40039 181.153 9.56545 180.859 9.85926C180.565 10.1531 180.4 10.5516 180.4 10.9671C180.4 11.3826 180.565 11.7811 180.859 12.0749C181.153 12.3687 181.551 12.5337 181.967 12.5337H186.98C190.514 12.5337 193.074 12.5337 195.083 12.6998C197.079 12.8627 198.395 13.1761 199.479 13.7275C201.543 14.7791 203.221 16.4573 204.273 18.5215C204.824 19.6057 205.138 20.9217 205.301 22.9176C205.467 24.9261 205.467 27.486 205.467 31.0204V36.0337C205.467 36.4492 205.632 36.8477 205.925 37.1415C206.219 37.4353 206.618 37.6004 207.033 37.6004C207.449 37.6004 207.847 37.4353 208.141 37.1415C208.435 36.8477 208.6 36.4492 208.6 36.0337V30.9483C208.6 27.5017 208.6 24.8133 208.424 22.6607C208.246 20.4736 207.876 18.697 207.061 17.099C205.71 14.4457 203.554 12.2882 200.901 10.9357C199.303 10.1211 197.527 9.75446 195.34 9.57586C193.184 9.40039 190.502 9.40039 187.052 9.40039Z" fill="white"/>
<path fill-rule="evenodd" clip-rule="evenodd" d="M30.948 162.6L36.0334 162.6C36.4489 162.6 36.8474 162.435 37.1412 162.141C37.435 161.847 37.6001 161.448 37.6001 161.033C37.6001 160.617 37.435 160.219 37.1412 159.925C36.8474 159.631 36.4489 159.466 36.0334 159.466L31.0201 159.466C27.4857 159.466 24.9258 159.466 22.9173 159.3C20.9214 159.137 19.6054 158.824 18.5212 158.272C16.457 157.221 14.7788 155.543 13.7272 153.478C13.1758 152.394 12.8624 151.078 12.6995 149.082C12.5334 147.074 12.5334 144.514 12.5334 140.98L12.5334 135.966C12.5334 135.551 12.3684 135.152 12.0746 134.858C11.7808 134.565 11.3823 134.4 10.9668 134.4C10.5513 134.4 10.1528 134.565 9.85896 134.858C9.56516 135.152 9.4001 135.551 9.4001 135.966L9.4001 141.052C9.4001 144.498 9.4001 147.187 9.57556 149.339C9.75416 151.526 10.1239 153.303 10.9386 154.901C12.2897 157.554 14.4461 159.712 17.0987 161.064C18.6967 161.879 20.4733 162.246 22.6604 162.424C24.8161 162.6 27.4982 162.6 30.948 162.6Z" fill="white"/>
<path d="M110.25 44V52.75H84V44H110.25ZM84 70.25V61.5H110.25V70.25H84ZM84 87.75V79H101.5V87.75H84ZM75.25 44V52.75H66.5V44H75.25ZM75.25 61.5V70.25H66.5V61.5H75.25ZM66.5 87.75V79H75.25V87.75H66.5ZM57.75 17.75V140.25H101.5V149H49V9H125.221L162.75 46.5293V61.5H154V52.75H119V17.75H57.75ZM127.75 23.9707V44H147.779L127.75 23.9707ZM171.5 79H189V149H110.25V79H127.75V70.25H136.5V79H162.75V70.25H171.5V79ZM180.25 140.25V105.25H119V140.25H180.25ZM180.25 96.5V87.75H119V96.5H180.25Z" fill="white"/>
</svg>
