<svg width="218" height="172" viewBox="0 0 218 172" fill="none" xmlns="http://www.w3.org/2000/svg">
<path d="M153.471 113.37C156.154 108.674 158.167 103.308 158.167 97.2702C158.167 80.4993 144.75 67.0827 127.979 67.0827C111.208 67.0827 97.7916 80.4993 97.7916 97.2702C97.7916 114.041 111.208 127.458 127.979 127.458C134.017 127.458 139.383 125.445 144.079 122.762L165.546 144.229L174.937 134.837L153.471 113.37ZM127.979 114.041C118.587 114.041 111.208 106.662 111.208 97.2702C111.208 87.8785 118.587 80.4993 127.979 80.4993C137.371 80.4993 144.75 87.8785 144.75 97.2702C144.75 106.662 137.371 114.041 127.979 114.041ZM104.5 134.166V147.583C67.47 147.583 37.4166 117.529 37.4166 80.4993C37.4166 43.4693 67.47 13.416 104.5 13.416C136.968 13.416 164.003 36.4927 170.242 67.0827H156.355C154.263 58.9779 150.304 51.4749 144.794 45.1734C139.285 38.8718 132.378 33.9463 124.625 30.7906V33.541C124.625 40.9202 118.587 46.9577 111.208 46.9577H97.7916V60.3743C97.7916 64.0639 94.7729 67.0827 91.0833 67.0827H77.6666V80.4993H91.0833V100.624H84.375L52.242 68.4914C51.37 72.3823 50.8333 76.3402 50.8333 80.4993C50.8333 110.083 74.9162 134.166 104.5 134.166Z" fill="white"/>
<path fill-rule="evenodd" clip-rule="evenodd" d="M187.052 9.40039H181.967C181.551 9.40039 181.153 9.56545 180.859 9.85926C180.565 10.1531 180.4 10.5516 180.4 10.9671C180.4 11.3826 180.565 11.7811 180.859 12.0749C181.153 12.3687 181.551 12.5337 181.967 12.5337H186.98C190.514 12.5337 193.074 12.5337 195.083 12.6998C197.079 12.8627 198.395 13.1761 199.479 13.7275C201.543 14.7791 203.221 16.4573 204.273 18.5215C204.824 19.6057 205.138 20.9217 205.301 22.9176C205.467 24.9261 205.467 27.486 205.467 31.0204V36.0337C205.467 36.4492 205.632 36.8477 205.926 37.1415C206.219 37.4353 206.618 37.6004 207.033 37.6004C207.449 37.6004 207.847 37.4353 208.141 37.1415C208.435 36.8477 208.6 36.4492 208.6 36.0337V30.9483C208.6 27.5017 208.6 24.8133 208.425 22.6607C208.246 20.4736 207.876 18.697 207.062 17.099C205.71 14.4457 203.554 12.2882 200.901 10.9357C199.303 10.1211 197.527 9.75446 195.34 9.57586C193.184 9.40039 190.502 9.40039 187.052 9.40039Z" fill="white"/>
<path fill-rule="evenodd" clip-rule="evenodd" d="M30.9479 162.6L36.0333 162.6C36.4488 162.6 36.8473 162.435 37.1411 162.141C37.4349 161.847 37.6 161.448 37.6 161.033C37.6 160.617 37.4349 160.219 37.1411 159.925C36.8473 159.631 36.4488 159.466 36.0333 159.466L31.02 159.466C27.4856 159.466 24.9256 159.466 22.9172 159.3C20.9212 159.137 19.6052 158.824 18.5211 158.272C16.4569 157.221 14.7786 155.543 13.7271 153.478C13.1756 152.394 12.8623 151.078 12.6994 149.082C12.5333 147.074 12.5333 144.514 12.5333 140.98L12.5333 135.966C12.5333 135.551 12.3683 135.152 12.0744 134.858C11.7806 134.565 11.3821 134.4 10.9666 134.4C10.5511 134.4 10.1526 134.565 9.85884 134.858C9.56504 135.152 9.39998 135.551 9.39998 135.966L9.39998 141.052C9.39998 144.498 9.39997 147.187 9.57544 149.339C9.75404 151.526 10.1238 153.303 10.9384 154.901C12.2896 157.554 14.446 159.712 17.0986 161.064C18.6966 161.879 20.4732 162.246 22.6602 162.424C24.816 162.6 27.4981 162.6 30.9479 162.6Z" fill="white"/>
</svg>
