<svg width="24" height="24" viewBox="0 0 24 24" fill="none" xmlns="http://www.w3.org/2000/svg">
<g clip-path="url(#clip0_1504_9980)">
<path fill-rule="evenodd" clip-rule="evenodd" d="M15 18.75C15 18.9489 14.921 19.1397 14.7803 19.2803C14.6397 19.421 14.4489 19.5 14.25 19.5H2.25C2.05109 19.5 1.86032 19.421 1.71967 19.2803C1.57902 19.1397 1.5 18.9489 1.5 18.75V5.25C1.5 5.05109 1.57902 4.86032 1.71967 4.71967C1.86032 4.57902 2.05109 4.5 2.25 4.5H14.25C14.4489 4.5 14.6397 4.57902 14.7803 4.71967C14.921 4.86032 15 5.05109 15 5.25V8.25C15 8.44891 15.079 8.63968 15.2197 8.78033C15.3603 8.92098 15.5511 9 15.75 9C15.9489 9 16.1397 8.92098 16.2803 8.78033C16.421 8.63968 16.5 8.44891 16.5 8.25V5.25C16.5 4.65326 16.2629 4.08097 15.841 3.65901C15.419 3.23705 14.8467 3 14.25 3H2.25C1.65326 3 1.08097 3.23705 0.65901 3.65901C0.237053 4.08097 0 4.65326 0 5.25L0 18.75C0 19.3467 0.237053 19.919 0.65901 20.341C1.08097 20.7629 1.65326 21 2.25 21H14.25C14.8467 21 15.419 20.7629 15.841 20.341C16.2629 19.919 16.5 19.3467 16.5 18.75V15.75C16.5 15.5511 16.421 15.3603 16.2803 15.2197C16.1397 15.079 15.9489 15 15.75 15C15.5511 15 15.3603 15.079 15.2197 15.2197C15.079 15.3603 15 15.5511 15 15.75V18.75Z" fill="#FF3E3E"/>
<path fill-rule="evenodd" clip-rule="evenodd" d="M23.781 12.5308C23.8508 12.4612 23.9063 12.3784 23.9441 12.2873C23.9819 12.1962 24.0013 12.0985 24.0013 11.9998C24.0013 11.9012 23.9819 11.8035 23.9441 11.7124C23.9063 11.6213 23.8508 11.5385 23.781 11.4688L19.281 6.96885C19.1402 6.82802 18.9492 6.7489 18.75 6.7489C18.5508 6.7489 18.3598 6.82802 18.219 6.96885C18.0782 7.10968 17.9991 7.30069 17.9991 7.49985C17.9991 7.69901 18.0782 7.89002 18.219 8.03085L21.4395 11.2498H8.25C8.05109 11.2498 7.86032 11.3289 7.71967 11.4695C7.57902 11.6102 7.5 11.8009 7.5 11.9998C7.5 12.1988 7.57902 12.3895 7.71967 12.5302C7.86032 12.6708 8.05109 12.7498 8.25 12.7498H21.4395L18.219 15.9688C18.0782 16.1097 17.9991 16.3007 17.9991 16.4998C17.9991 16.699 18.0782 16.89 18.219 17.0308C18.3598 17.1717 18.5508 17.2508 18.75 17.2508C18.9492 17.2508 19.1402 17.1717 19.281 17.0308L23.781 12.5308Z" fill="#FF3E3E"/>
</g>
<defs>
<clipPath id="clip0_1504_9980">
<rect width="24" height="24" fill="white"/>
</clipPath>
</defs>
</svg>
