<svg width="164" height="168" viewBox="0 0 164 168" fill="none" xmlns="http://www.w3.org/2000/svg">
<mask id="mask0_1436_184" style="mask-type:alpha" maskUnits="userSpaceOnUse" x="0" y="0" width="164" height="168">
<path d="M104.024 44.6101C109.276 44.6101 114.314 42.5235 118.028 38.8093C121.742 35.0951 123.829 30.0576 123.829 24.805C123.829 19.5524 121.742 14.5149 118.028 10.8008C114.314 7.0866 109.276 5 104.024 5C98.7711 5 93.7337 7.0866 90.0195 10.8008C86.3053 14.5149 84.2188 19.5524 84.2188 24.805C84.2188 30.0576 86.3053 35.0951 90.0195 38.8093C93.7337 42.5235 98.7711 44.6101 104.024 44.6101Z" fill="white" stroke="white" stroke-width="8.33333" stroke-miterlimit="2"/>
<path d="M151.557 84.2203C154.708 84.2203 157.731 82.9683 159.959 80.7398C162.188 78.5113 163.44 75.4888 163.44 72.3372C163.44 69.1857 162.188 66.1632 159.959 63.9347C157.731 61.7062 154.708 60.4542 151.557 60.4542C148.405 60.4542 145.383 61.7062 143.154 63.9347C140.926 66.1632 139.674 69.1857 139.674 72.3372C139.674 75.4888 140.926 78.5113 143.154 80.7398C145.383 82.9683 148.405 84.2203 151.557 84.2203Z" fill="white"/>
<path d="M52.532 84.2199L43.5405 128.821C43.3468 130.027 42.8766 131.172 42.1669 132.167C41.4572 133.161 40.5271 133.978 39.4494 134.553C38.3716 135.128 37.1754 135.447 35.9543 135.483C34.7331 135.519 33.5201 135.273 32.4101 134.762L5 123.83M139.674 107.986L83.2694 64.6921C80.2194 62.4344 76.0207 62.672 73.2084 65.2071L54.0372 82.7543C53.5994 83.1501 53.256 83.639 53.0323 84.185C52.8086 84.7311 52.7102 85.3204 52.7444 85.9095C52.7786 86.4986 52.9445 87.0726 53.23 87.5891C53.5154 88.1056 53.9131 88.5515 54.3937 88.8939L92.142 116.502C94.9939 118.601 96.1426 122.364 94.8751 125.692L80.7343 163.44" stroke="white" stroke-width="8.33333" stroke-miterlimit="2" stroke-linecap="round" stroke-linejoin="round"/>
</mask>
<g mask="url(#mask0_1436_184)">
<path d="M-10.8438 -10.8439H179.284V179.284H-10.8438V-10.8439Z" fill="#316FFF"/>
</g>
</svg>
