<svg width="28" height="28" viewBox="0 0 28 28" fill="none" xmlns="http://www.w3.org/2000/svg">
<path d="M3.5 7V21H15.54C15.2921 20.2471 15.1661 19.4594 15.1667 18.6667H8.16667C8.16667 18.0478 7.92083 17.4543 7.48325 17.0168C7.04566 16.5792 6.45217 16.3333 5.83333 16.3333V11.6667C7.12833 11.6667 8.16667 10.6283 8.16667 9.33333H19.8333C19.8333 9.95217 20.0792 10.5457 20.5168 10.9832C20.9543 11.4208 21.5478 11.6667 22.1667 11.6667V11.7367C22.9483 11.7367 23.73 11.8767 24.5 12.1333V7H3.5ZM14 10.5C12.0167 10.535 10.5 12.0167 10.5 14C10.5 15.9833 12.0167 17.43 14 17.5C14.4433 17.5 14.8983 17.4067 15.33 17.2317C15.645 15.9483 16.17 14.735 17.465 13.545C17.325 11.9933 15.855 10.465 14 10.5ZM22.1667 12.8333L24.7917 15.4583L22.1667 18.0833V16.3333C20.0083 16.3333 18.5967 18.62 19.5533 20.5567L18.2817 21.8283C16.2283 18.725 18.445 14.5833 22.1667 14.5833V12.8333ZM22.1667 25.6667L19.5417 23.0417L22.1667 20.4167V22.1667C24.325 22.1667 25.7367 19.88 24.78 17.9433L26.0517 16.6717C28.105 19.775 25.8883 23.9167 22.1667 23.9167V25.6667Z" fill="#2C63E3"/>
</svg>
