<svg width="26" height="26" viewBox="0 0 26 26" fill="none" xmlns="http://www.w3.org/2000/svg">
<path d="M16.0346 8.66665L17.3346 9.96665L9.96797 17.3333L8.66797 16.0333L16.0346 8.66665ZM4.33464 4.33331H21.668C22.8705 4.33331 23.8346 5.29748 23.8346 6.49998V10.8333C23.26 10.8333 22.7089 11.0616 22.3026 11.4679C21.8962 11.8742 21.668 12.4253 21.668 13C21.668 13.5746 21.8962 14.1257 22.3026 14.532C22.7089 14.9384 23.26 15.1666 23.8346 15.1666V19.5C23.8346 20.7025 22.8705 21.6666 21.668 21.6666H4.33464C3.76 21.6666 3.2089 21.4384 2.80257 21.032C2.39624 20.6257 2.16797 20.0746 2.16797 19.5V15.1666C3.37047 15.1666 4.33464 14.2025 4.33464 13C4.33464 12.4253 4.10636 11.8742 3.70003 11.4679C3.2937 11.0616 2.7426 10.8333 2.16797 10.8333V6.49998C2.16797 5.92534 2.39624 5.37424 2.80257 4.96791C3.2089 4.56159 3.76 4.33331 4.33464 4.33331ZM4.33464 6.49998V9.25165C4.99295 9.63125 5.53969 10.1775 5.91983 10.8355C6.29997 11.4935 6.50011 12.2401 6.50011 13C6.50011 13.7599 6.29997 14.5064 5.91983 15.1644C5.53969 15.8224 4.99295 16.3687 4.33464 16.7483V19.5H21.668V16.7483C21.0096 16.3687 20.4629 15.8224 20.0828 15.1644C19.7026 14.5064 19.5025 13.7599 19.5025 13C19.5025 12.2401 19.7026 11.4935 20.0828 10.8355C20.4629 10.1775 21.0096 9.63125 21.668 9.25165V6.49998H4.33464ZM10.293 8.66665C11.1921 8.66665 11.918 9.39248 11.918 10.2916C11.918 11.1908 11.1921 11.9166 10.293 11.9166C9.3938 11.9166 8.66797 11.1908 8.66797 10.2916C8.66797 9.39248 9.3938 8.66665 10.293 8.66665ZM15.7096 14.0833C16.6088 14.0833 17.3346 14.8091 17.3346 15.7083C17.3346 16.6075 16.6088 17.3333 15.7096 17.3333C14.8105 17.3333 14.0846 16.6075 14.0846 15.7083C14.0846 14.8091 14.8105 14.0833 15.7096 14.0833Z" fill="#2C63E3"/>
</svg>
