<svg width="41" height="41" viewBox="0 0 41 41" fill="none" xmlns="http://www.w3.org/2000/svg">
<path d="M23.918 11.9583V6.83332C23.918 5.92717 23.558 5.05812 22.9173 4.41737C22.2765 3.77663 21.4075 3.41666 20.5013 3.41666H6.83464C5.92848 3.41666 5.05944 3.77663 4.41869 4.41737C3.77794 5.05812 3.41797 5.92717 3.41797 6.83332V17.0833C3.41797 17.9895 3.77794 18.8585 4.41869 19.4993C5.05944 20.14 5.92848 20.5 6.83464 20.5H8.42339C8.98574 20.4999 9.53943 20.6386 10.0353 20.9039C10.5312 21.1691 10.9539 21.5526 11.2661 22.0204L11.9596 23.0625M34.168 17.0833H20.5013C19.5951 17.0833 18.7261 17.4433 18.0854 18.084C17.4446 18.7248 17.0846 19.5938 17.0846 20.5V30.75C17.0846 31.6561 17.4446 32.5252 18.0854 33.1659C18.7261 33.8067 19.5951 34.1667 20.5013 34.1667H22.0901C22.6524 34.1666 23.2061 34.3053 23.702 34.5705C24.1979 34.8358 24.6206 35.2193 24.9327 35.6871L25.9133 37.1597C26.0693 37.3936 26.2807 37.5855 26.5286 37.7181C26.7766 37.8508 27.0534 37.9203 27.3346 37.9203C27.6158 37.9203 27.8927 37.8508 28.1407 37.7181C28.3886 37.5855 28.6 37.3936 28.756 37.1597L29.7366 35.6888C30.0485 35.2207 30.4711 34.8368 30.967 34.5713C31.4629 34.3057 32.0167 34.1668 32.5792 34.1667H34.168C35.0741 34.1667 35.9432 33.8067 36.5839 33.1659C37.2247 32.5252 37.5846 31.6561 37.5846 30.75V20.5C37.5846 19.5938 37.2247 18.7248 36.5839 18.084C35.9432 17.4433 35.0741 17.0833 34.168 17.0833Z" stroke="#316FFF" stroke-width="2" stroke-linecap="round" stroke-linejoin="round"/>
</svg>
