<svg width="71" height="71" viewBox="0 0 71 71" fill="none" xmlns="http://www.w3.org/2000/svg">
<g clip-path="url(#clip0_181_251)">
<path d="M51.1917 31.9708L44.775 25.5542C43.9583 24.7375 43.725 23.6 44.0458 22.5792C45.125 19.3125 45.7083 15.8125 45.7083 12.1667C45.7083 10.5625 47.0208 9.25 48.625 9.25H58.8333C60.4375 9.25 61.75 10.5625 61.75 12.1667C61.75 39.5542 39.5542 61.75 12.1667 61.75C10.5625 61.75 9.25 60.4375 9.25 58.8333V48.6542C9.25 47.05 10.5625 45.7375 12.1667 45.7375C15.7833 45.7375 19.3125 45.1542 22.5792 44.075C23.6 43.725 24.7667 43.9875 25.5542 44.775L31.9708 51.1917C40.225 46.9625 46.9917 40.225 51.1917 31.9708Z" fill="#145CFD"/>
</g>
<defs>
<clipPath id="clip0_181_251">
<rect width="70" height="70" fill="white" transform="translate(0.5 0.5)"/>
</clipPath>
</defs>
</svg>
