<svg width="103" height="102" viewBox="0 0 103 102" fill="none" xmlns="http://www.w3.org/2000/svg">
<g filter="url(#filter0_d_61_2400)">
<rect x="21.5" y="21" width="60" height="60" rx="5" fill="#316FFF"/>
</g>
<g clip-path="url(#clip0_61_2400)">
<path fill-rule="evenodd" clip-rule="evenodd" d="M47.2944 38.0084C47.4 38.0716 47.4922 38.1551 47.5656 38.254C47.6389 38.3529 47.6921 38.4652 47.7221 38.5847C47.752 38.7041 47.7582 38.8283 47.7401 38.9501C47.7221 39.0719 47.6802 39.189 47.6169 39.2946L42.8431 47.2502H60.1569L55.3812 39.2946C55.2534 39.0813 55.2156 38.8259 55.2761 38.5847C55.3366 38.3435 55.4904 38.1362 55.7037 38.0084C55.9171 37.8806 56.1724 37.8427 56.4137 37.9032C56.6549 37.9637 56.8622 38.1175 56.99 38.3309L62.3431 47.2502H64.625C65.1223 47.2502 65.5992 47.4478 65.9508 47.7994C66.3025 48.151 66.5 48.6279 66.5 49.1252V51.0002C66.5 51.4975 66.3025 51.9744 65.9508 52.3261C65.5992 52.6777 65.1223 52.8752 64.625 52.8752V61.3127C64.625 62.5559 64.1311 63.7482 63.2521 64.6273C62.373 65.5064 61.1807 66.0002 59.9375 66.0002H43.0625C41.8193 66.0002 40.627 65.5064 39.7479 64.6273C38.8689 63.7482 38.375 62.5559 38.375 61.3127V52.8752C37.8777 52.8752 37.4008 52.6777 37.0492 52.3261C36.6975 51.9744 36.5 51.4975 36.5 51.0002V49.1252C36.5 48.6279 36.6975 48.151 37.0492 47.7994C37.4008 47.4478 37.8777 47.2502 38.375 47.2502H40.6569L46.0063 38.3309C46.0695 38.2252 46.153 38.1331 46.2519 38.0597C46.3507 37.9863 46.4631 37.9331 46.5826 37.9031C46.702 37.8732 46.8262 37.8671 46.948 37.8851C47.0698 37.9032 47.1869 37.9451 47.2925 38.0084H47.2944ZM40.25 52.8752V61.3127C40.25 62.0587 40.5463 62.774 41.0738 63.3015C41.6012 63.8289 42.3166 64.1252 43.0625 64.1252H59.9375C60.6834 64.1252 61.3988 63.8289 61.9262 63.3015C62.4537 62.774 62.75 62.0587 62.75 61.3127V52.8752H40.25ZM38.375 49.1252V51.0002H64.625V49.1252H38.375ZM44 54.7502C44.2486 54.7502 44.4871 54.849 44.6629 55.0248C44.8387 55.2006 44.9375 55.4391 44.9375 55.6877V61.3127C44.9375 61.5614 44.8387 61.7998 44.6629 61.9756C44.4871 62.1515 44.2486 62.2502 44 62.2502C43.7514 62.2502 43.5129 62.1515 43.3371 61.9756C43.1613 61.7998 43.0625 61.5614 43.0625 61.3127V55.6877C43.0625 55.4391 43.1613 55.2006 43.3371 55.0248C43.5129 54.849 43.7514 54.7502 44 54.7502ZM47.75 54.7502C47.9986 54.7502 48.2371 54.849 48.4129 55.0248C48.5887 55.2006 48.6875 55.4391 48.6875 55.6877V61.3127C48.6875 61.5614 48.5887 61.7998 48.4129 61.9756C48.2371 62.1515 47.9986 62.2502 47.75 62.2502C47.5014 62.2502 47.2629 62.1515 47.0871 61.9756C46.9113 61.7998 46.8125 61.5614 46.8125 61.3127V55.6877C46.8125 55.4391 46.9113 55.2006 47.0871 55.0248C47.2629 54.849 47.5014 54.7502 47.75 54.7502ZM51.5 54.7502C51.7486 54.7502 51.9871 54.849 52.1629 55.0248C52.3387 55.2006 52.4375 55.4391 52.4375 55.6877V61.3127C52.4375 61.5614 52.3387 61.7998 52.1629 61.9756C51.9871 62.1515 51.7486 62.2502 51.5 62.2502C51.2514 62.2502 51.0129 62.1515 50.8371 61.9756C50.6613 61.7998 50.5625 61.5614 50.5625 61.3127V55.6877C50.5625 55.4391 50.6613 55.2006 50.8371 55.0248C51.0129 54.849 51.2514 54.7502 51.5 54.7502ZM55.25 54.7502C55.4986 54.7502 55.7371 54.849 55.9129 55.0248C56.0887 55.2006 56.1875 55.4391 56.1875 55.6877V61.3127C56.1875 61.5614 56.0887 61.7998 55.9129 61.9756C55.7371 62.1515 55.4986 62.2502 55.25 62.2502C55.0014 62.2502 54.7629 62.1515 54.5871 61.9756C54.4113 61.7998 54.3125 61.5614 54.3125 61.3127V55.6877C54.3125 55.4391 54.4113 55.2006 54.5871 55.0248C54.7629 54.849 55.0014 54.7502 55.25 54.7502ZM59 54.7502C59.2486 54.7502 59.4871 54.849 59.6629 55.0248C59.8387 55.2006 59.9375 55.4391 59.9375 55.6877V61.3127C59.9375 61.5614 59.8387 61.7998 59.6629 61.9756C59.4871 62.1515 59.2486 62.2502 59 62.2502C58.7514 62.2502 58.5129 62.1515 58.3371 61.9756C58.1613 61.7998 58.0625 61.5614 58.0625 61.3127V55.6877C58.0625 55.4391 58.1613 55.2006 58.3371 55.0248C58.5129 54.849 58.7514 54.7502 59 54.7502Z" fill="white"/>
</g>
<defs>
<filter id="filter0_d_61_2400" x="0.5" y="0" width="102" height="102" filterUnits="userSpaceOnUse" color-interpolation-filters="sRGB">
<feFlood flood-opacity="0" result="BackgroundImageFix"/>
<feColorMatrix in="SourceAlpha" type="matrix" values="0 0 0 0 0 0 0 0 0 0 0 0 0 0 0 0 0 0 127 0" result="hardAlpha"/>
<feMorphology radius="2" operator="dilate" in="SourceAlpha" result="effect1_dropShadow_61_2400"/>
<feOffset/>
<feGaussianBlur stdDeviation="9.5"/>
<feComposite in2="hardAlpha" operator="out"/>
<feColorMatrix type="matrix" values="0 0 0 0 0 0 0 0 0 0 0 0 0 0 0 0 0 0 0.25 0"/>
<feBlend mode="normal" in2="BackgroundImageFix" result="effect1_dropShadow_61_2400"/>
<feBlend mode="normal" in="SourceGraphic" in2="effect1_dropShadow_61_2400" result="shape"/>
</filter>
<clipPath id="clip0_61_2400">
<rect width="30" height="30" fill="white" transform="translate(36.5 36)"/>
</clipPath>
</defs>
</svg>
