<svg width="103" height="102" viewBox="0 0 103 102" fill="none" xmlns="http://www.w3.org/2000/svg">
<g filter="url(#filter0_d_61_2426)">
<rect x="21.5" y="21" width="60" height="60" rx="5" fill="#316FFF"/>
</g>
<g clip-path="url(#clip0_61_2426)">
<path fill-rule="evenodd" clip-rule="evenodd" d="M44.0001 44.4375C44.0001 44.1889 44.0988 43.9504 44.2747 43.7746C44.4505 43.5988 44.6889 43.5 44.9376 43.5H47.7501C47.9987 43.5 48.2372 43.5988 48.413 43.7746C48.5888 43.9504 48.6876 44.1889 48.6876 44.4375C48.6876 44.6861 48.5888 44.9246 48.413 45.1004C48.2372 45.2762 47.9987 45.375 47.7501 45.375V46.3125H55.5126L56.2363 44.1413C56.2985 43.9546 56.4177 43.7923 56.5772 43.6772C56.7367 43.5622 56.9284 43.5001 57.1251 43.5H59.0001C59.2487 43.5 59.4872 43.5988 59.663 43.7746C59.8388 43.9504 59.9376 44.1889 59.9376 44.4375C59.9376 44.6861 59.8388 44.9246 59.663 45.1004C59.4872 45.2762 59.2487 45.375 59.0001 45.375H57.8001L57.2169 47.1281L58.7301 49.5469C60.034 49.0092 61.4923 48.9809 62.816 49.4677C64.1398 49.9545 65.2323 50.9208 65.8772 52.1751C66.5221 53.4295 66.6722 54.8803 66.2978 56.2401C65.9235 57.5999 65.0519 58.7695 63.8559 59.517C62.6598 60.2645 61.2266 60.5355 59.8403 60.2761C58.4539 60.0168 57.2156 59.246 56.3706 58.1167C55.5257 56.9874 55.1359 55.5819 55.2784 54.1787C55.4209 52.7755 56.0854 51.477 57.1401 50.5406L56.1876 49.0181L52.2951 55.2469C52.2108 55.3817 52.0936 55.4929 51.9545 55.57C51.8155 55.6471 51.6591 55.6875 51.5001 55.6875H47.6732C47.4787 56.8372 46.9318 57.8981 46.108 58.7234C45.2842 59.5487 44.2243 60.0975 43.0749 60.294C41.9255 60.4905 40.7434 60.325 39.6922 59.8203C38.6411 59.3155 37.7727 58.4966 37.2073 57.4768C36.642 56.4569 36.4075 55.2866 36.5364 54.1277C36.6653 52.9687 37.1512 51.8785 37.9269 51.0078C38.7025 50.1371 39.7296 49.529 40.866 49.2676C42.0024 49.0062 43.192 49.1045 44.2701 49.5487L45.8751 46.98V45.375H44.9376C44.6889 45.375 44.4505 45.2762 44.2747 45.1004C44.0988 44.9246 44.0001 44.6861 44.0001 44.4375ZM46.8126 49.0181L45.8601 50.5444C46.7976 51.3769 47.4538 52.5206 47.6732 53.8125H49.8088L46.8126 49.0181ZM51.5001 52.9819L54.4963 48.1875H48.5038L51.5001 52.9819ZM45.7569 53.8125C45.5974 53.1956 45.2832 52.6296 44.8438 52.1681L43.8163 53.8125H45.7569ZM43.2557 51.1725C42.5404 50.9466 41.7738 50.9404 41.055 51.1548C40.3361 51.3691 39.6981 51.7941 39.2233 52.3748C38.7485 52.9555 38.4588 53.6652 38.3915 54.4123C38.3243 55.1594 38.4827 55.9095 38.8462 56.5657C39.2097 57.2218 39.7616 57.7539 40.4306 58.0931C41.0996 58.4323 41.855 58.5631 42.5991 58.4685C43.3433 58.374 44.0419 58.0584 44.6049 57.5627C45.1678 57.0669 45.5691 56.4137 45.7569 55.6875H42.1251C41.9577 55.6875 41.7934 55.6427 41.6492 55.5578C41.505 55.4728 41.3862 55.3508 41.3051 55.2045C41.224 55.0581 41.1835 54.8927 41.1879 54.7254C41.1923 54.5581 41.2414 54.395 41.3301 54.2531L43.2557 51.1725ZM58.1563 52.1663C57.5278 52.8281 57.1623 53.6965 57.1283 54.6086C57.0943 55.5207 57.3941 56.4139 57.9715 57.1207C58.5489 57.8276 59.3643 58.2996 60.2648 58.4483C61.1654 58.597 62.0892 58.4121 62.8632 57.9284C63.6372 57.4446 64.2082 56.6952 64.4692 55.8206C64.7301 54.946 64.6632 54.0062 64.2808 53.1774C63.8984 52.3487 63.2269 51.6878 62.3922 51.3187C61.5574 50.9496 60.6167 50.8976 59.7463 51.1725L61.6701 54.2531C61.7353 54.3575 61.7794 54.4738 61.7997 54.5952C61.82 54.7166 61.8163 54.8408 61.7886 54.9608C61.7609 55.0808 61.7098 55.1941 61.6384 55.2943C61.5669 55.3946 61.4764 55.4797 61.372 55.545C61.2675 55.6103 61.1513 55.6543 61.0299 55.6746C60.9085 55.695 60.7842 55.6912 60.6643 55.6635C60.5443 55.6358 60.431 55.5848 60.3307 55.5133C60.2305 55.4418 60.1453 55.3513 60.0801 55.2469L58.1563 52.1681V52.1663Z" fill="white"/>
</g>
<defs>
<filter id="filter0_d_61_2426" x="0.5" y="0" width="102" height="102" filterUnits="userSpaceOnUse" color-interpolation-filters="sRGB">
<feFlood flood-opacity="0" result="BackgroundImageFix"/>
<feColorMatrix in="SourceAlpha" type="matrix" values="0 0 0 0 0 0 0 0 0 0 0 0 0 0 0 0 0 0 127 0" result="hardAlpha"/>
<feMorphology radius="2" operator="dilate" in="SourceAlpha" result="effect1_dropShadow_61_2426"/>
<feOffset/>
<feGaussianBlur stdDeviation="9.5"/>
<feComposite in2="hardAlpha" operator="out"/>
<feColorMatrix type="matrix" values="0 0 0 0 0 0 0 0 0 0 0 0 0 0 0 0 0 0 0.25 0"/>
<feBlend mode="normal" in2="BackgroundImageFix" result="effect1_dropShadow_61_2426"/>
<feBlend mode="normal" in="SourceGraphic" in2="effect1_dropShadow_61_2426" result="shape"/>
</filter>
<clipPath id="clip0_61_2426">
<rect width="30" height="30" fill="white" transform="translate(36.5 36)"/>
</clipPath>
</defs>
</svg>
