<svg width="159" height="159" viewBox="0 0 159 159" fill="none" xmlns="http://www.w3.org/2000/svg">
<path d="M114.869 29.4772C119.071 29.4772 123.101 27.9244 126.072 25.1604C129.044 22.3963 130.713 18.6475 130.713 14.7386C130.713 10.8297 129.044 7.08086 126.072 4.31684C123.101 1.55281 119.071 0 114.869 0C110.667 0 106.637 1.55281 103.666 4.31684C100.694 7.08086 99.025 10.8297 99.025 14.7386C99.025 18.6475 100.694 22.3963 103.666 25.1604C106.637 27.9244 110.667 29.4772 114.869 29.4772ZM86.3498 131.911L94.2718 99.4856L110.908 114.224V158.44H126.752V103.17L110.116 88.4316L114.869 66.3237C120.297 72.1103 126.993 76.7486 134.509 79.9264C142.024 83.1042 150.184 84.7479 158.44 84.747V70.0084C144.497 70.2295 131.505 63.4497 124.375 52.3221L116.453 40.5312C113.601 36.1096 108.531 33.1619 102.986 33.1619C100.609 33.1619 99.025 33.8988 96.6484 33.8988L55.454 50.1113V84.747H71.298V59.6914L85.5576 54.5328L72.8824 114.224L34.0646 106.855L30.8958 121.593L86.3498 131.911ZM15.844 55.2698C13.743 55.2698 11.728 54.4934 10.2423 53.1114C8.75664 51.7293 7.922 49.8549 7.922 47.9005C7.922 45.946 8.75664 44.0716 10.2423 42.6896C11.728 41.3076 13.743 40.5312 15.844 40.5312H39.61V55.2698H15.844ZM23.766 25.7926C21.665 25.7926 19.65 25.0162 18.1643 23.6341C16.6786 22.2521 15.844 20.3777 15.844 18.4233C15.844 16.4688 16.6786 14.5944 18.1643 13.2124C19.65 11.8304 21.665 11.054 23.766 11.054H63.376V25.7926H23.766ZM7.922 84.747C5.82095 84.747 3.80596 83.9706 2.3203 82.5886C0.834637 81.2066 0 79.3321 0 77.3777C0 75.4232 0.834637 73.5488 2.3203 72.1668C3.80596 70.7848 5.82095 70.0084 7.922 70.0084H39.61V84.747H7.922Z" fill="#316FFF"/>
</svg>
