<svg width="32" height="32" viewBox="0 0 32 32" fill="none" xmlns="http://www.w3.org/2000/svg">
<g clip-path="url(#clip0_1504_7220)">
<path d="M26.8702 24.1258H25.4248L24.9125 23.6318C26.7055 21.546 27.785 18.8382 27.785 15.8925C27.785 9.32419 22.4608 4 15.8925 4C9.32419 4 4 9.32419 4 15.8925C4 22.4608 9.32419 27.785 15.8925 27.785C18.8382 27.785 21.546 26.7055 23.6318 24.9125L24.1258 25.4248V26.8702L33.2739 36L36 33.2739L26.8702 24.1258V24.1258ZM15.8925 24.1258C11.3368 24.1258 7.65923 20.4483 7.65923 15.8925C7.65923 11.3368 11.3368 7.65923 15.8925 7.65923C20.4483 7.65923 24.1258 11.3368 24.1258 15.8925C24.1258 20.4483 20.4483 24.1258 15.8925 24.1258Z" fill="white"/>
</g>
<defs>
<clipPath id="clip0_1504_7220">
<rect width="32" height="32" fill="white"/>
</clipPath>
</defs>
</svg>
