<svg width="159" height="137" viewBox="0 0 159 137" fill="none" xmlns="http://www.w3.org/2000/svg">
<path d="M134.7 37.9036C143.459 37.9036 150.56 31.1076 150.56 22.7244C150.56 14.3411 143.459 7.54517 134.7 7.54517C125.941 7.54517 118.84 14.3411 118.84 22.7244C118.84 31.1076 125.941 37.9036 134.7 37.9036Z" fill="#316FFF"/>
<path d="M133.684 77.4443C129.192 80.879 125.936 83.3659 118.806 83.3659C111.684 83.3659 108.603 81.0078 103.945 77.4443C98.5576 73.3273 91.8635 68.2018 79.1725 68.2018C66.4893 68.2018 59.8032 73.3273 54.4241 77.4443C49.766 81.0078 46.7002 83.3659 39.5704 83.3659C32.4564 83.3659 29.3827 81.0079 24.7325 77.4519C19.3534 73.3273 12.6752 68.2018 0 68.2018V83.3659C7.10603 83.3659 10.1798 85.7239 14.83 89.2798C20.209 93.4044 26.8952 98.5299 39.5704 98.5299C52.2456 98.5299 58.9476 93.4044 64.3266 89.2798C68.9769 85.7163 72.0585 83.3659 79.1725 83.3659C86.3023 83.3659 89.5582 85.8528 94.05 89.2874C99.429 93.4044 106.123 98.5299 118.806 98.5299C131.497 98.5299 138.191 93.4044 143.578 89.2874C148.236 85.7239 151.318 83.3659 158.44 83.3659V68.2018C145.757 68.2018 139.063 73.3273 133.684 77.4443ZM118.806 121.276C111.684 121.276 108.603 118.918 103.945 115.354C98.5576 111.237 91.8635 106.112 79.1725 106.112C66.4893 106.112 59.8032 111.237 54.4241 115.354C49.766 118.918 46.7002 121.276 39.5704 121.276C32.4564 121.276 29.3827 118.918 24.7325 115.362C19.3534 111.237 12.6752 106.112 0 106.112V121.276C7.10603 121.276 10.1798 123.634 14.83 127.19C20.209 131.315 26.8952 136.44 39.5704 136.44C52.2456 136.44 58.9476 131.315 64.3266 127.19C68.9769 123.626 72.0585 121.276 79.1725 121.276C86.3023 121.276 89.5582 123.763 94.05 127.198C99.429 131.315 106.123 136.44 118.806 136.44C131.497 136.44 138.191 131.315 143.578 127.198C148.236 123.634 151.318 121.276 158.44 121.276V106.112C145.757 106.112 139.063 111.237 133.684 115.354C129.192 118.789 125.936 121.276 118.806 121.276ZM71.298 18.3045L87.9659 34.2571L71.6703 53.7429C73.936 53.3183 76.3918 53.0378 79.1725 53.0378C91.8635 53.0378 98.5576 58.1632 103.945 62.2803C108.603 65.8438 111.684 68.2018 118.806 68.2018C125.936 68.2018 129.192 65.7149 133.684 62.2803C134.729 61.4841 135.854 60.6349 137.035 59.8085L120.43 43.9621L120.47 43.9242L76.8988 2.22306C76.1638 1.51834 75.2908 0.95926 74.3297 0.577803C73.3686 0.196346 72.3384 0 71.298 0C70.2576 0 69.2274 0.196346 68.2663 0.577803C67.3052 0.95926 66.4322 1.51834 65.6971 2.22306L34.0091 32.5511L45.2109 43.2721L71.298 18.3045Z" fill="#316FFF"/>
</svg>
