<svg width="159" height="159" viewBox="0 0 159 159" fill="none" xmlns="http://www.w3.org/2000/svg">
<path d="M146.989 14.5395C128.903 -3.54377 95.8212 0.208611 73.109 22.9289C59.7975 36.2379 53.0506 53.088 53.3358 68.4144C52.2637 84.8288 49.322 100.67 41.5559 109.854L38.8703 107.166L34.7272 111.307L35.8759 112.455L8.01965 140.312L6.87097 139.163L2.73307 143.301L17.864 158.44L22.0072 154.302L20.8585 153.156L48.7173 125.3L49.866 126.446L54.0013 122.308L51.6854 119.979C60.8643 112.218 76.6844 109.279 93.0829 108.199C108.414 108.497 125.28 101.753 138.602 88.4306C161.33 65.7104 165.08 32.6281 146.989 14.5395ZM150.11 44.0384L146.313 40.2464L149.26 37.3047C149.738 39.4912 150.018 41.741 150.11 44.0384ZM148.032 33.0268L143.564 37.4975L135.183 29.1133L141.832 22.4615C144.555 25.5545 146.66 29.141 148.032 33.0268ZM70.9014 71.1052L81.4165 60.5848L89.8058 68.9716L79.2855 79.4867L70.9014 71.1052ZM76.5392 82.2488L69.8768 88.9033C67.1506 85.8095 65.0456 82.2198 63.6766 78.3301L68.1472 73.8647L76.5392 82.2488ZM110.767 31.2417L121.277 20.7266L129.661 29.116L119.143 39.6338L110.767 31.2417ZM127.527 53.5237L117.004 64.0652L108.61 55.6837L119.143 45.1448L127.527 53.5237ZM116.389 42.388L105.856 52.9216L97.4716 44.5375L108.005 34.0012L116.389 42.388ZM103.099 55.6837L92.5627 66.2174L84.1733 57.828L94.7121 47.2943L103.099 55.6837ZM94.7121 41.7806L86.3492 33.415L96.8827 22.8787L105.24 31.2417L94.7121 41.7806ZM91.9579 44.5401L81.4165 55.0711L73.0562 46.7055L83.5844 36.1666L91.9579 44.5401ZM92.5627 71.7337L100.944 80.1125L90.429 90.633L82.0502 82.2436L92.5627 71.7337ZM95.3274 68.9716L105.856 58.438L114.24 66.8221L103.698 77.3583L95.3274 68.9716ZM117.004 69.5763L125.354 77.9446L114.818 88.4782L106.45 80.1125L117.004 69.5763ZM119.753 66.8194L130.287 56.2858L138.655 64.6488L128.122 75.1851L119.753 66.8194ZM121.903 42.3906L132.423 31.8702L140.805 40.249L130.298 50.7695L121.903 42.3906ZM139.078 19.7047L132.423 26.3591L124.031 17.9697L128.497 13.5044C132.39 14.8709 135.983 16.9762 139.078 19.7047ZM124.221 12.2685L121.28 15.2102L117.49 11.4209C119.788 11.5159 122.038 11.7932 124.221 12.2685ZM112.098 11.5424L118.52 17.9671L108.008 28.4849L99.6369 20.1219L107.614 12.1444C109.117 11.8672 110.614 11.6691 112.098 11.5424ZM100.065 14.1804L96.8854 17.365L95.5307 16.0104C97.0137 15.3323 98.5266 14.7217 100.065 14.1804ZM91.8629 17.8535L94.1233 20.1166L83.5844 30.6555L79.6736 26.7341C83.3465 23.2724 87.442 20.2886 91.8629 17.8535ZM76.9142 29.4962L80.8329 33.415L70.2967 43.9486L68.0337 41.6829C70.4694 37.2633 73.4532 33.1687 76.9142 29.4962ZM66.1879 45.3535L67.5399 46.7081L64.3552 49.8928C64.8887 48.3664 65.496 46.856 66.1879 45.3535ZM62.3193 57.4345L70.2967 49.4597L78.6623 57.8253L68.1472 68.3378L61.7146 61.9078C61.844 60.429 62.042 58.9344 62.3193 57.4345ZM65.3851 71.1026L62.4434 74.0443C61.9642 71.8299 61.6814 69.5774 61.5984 67.3132L65.3851 71.1026ZM54.099 107.441C51.2101 104.552 54.9704 93.3555 57.5741 86.6984C59.3803 90.3927 61.7172 93.8255 64.7091 96.8174C67.7036 99.8119 71.1391 102.152 74.8413 103.96C68.1842 106.561 56.9826 110.324 54.099 107.441ZM72.6337 91.6628L79.2881 85.0057L87.6722 93.3925L83.1963 97.8578C79.3114 96.4879 75.7256 94.3848 72.6337 91.6628ZM87.482 99.0884L90.4264 96.144L94.2183 99.9387C91.9523 99.8539 89.6981 99.5694 87.482 99.0884ZM99.6132 99.8172L93.1806 93.3845L103.696 82.8694L112.066 91.2324L104.086 99.2178C102.606 99.4905 101.113 99.6906 99.6132 99.8172ZM111.633 97.1818L114.815 93.9998L116.173 95.3518C114.67 96.0358 113.157 96.6458 111.633 97.1818ZM119.851 93.4981L117.588 91.2324L128.122 80.7014L132.038 84.6175C128.366 88.08 124.272 91.0639 119.851 93.4981ZM134.795 81.8607L130.876 77.9446L141.409 67.4083L143.678 69.6714C141.24 74.0915 138.256 78.1868 134.795 81.8607ZM145.521 66.0035L144.166 64.6514L147.348 61.4694C146.809 63.008 146.199 64.521 145.521 66.0035ZM149.387 53.9145L141.409 61.8946L133.049 53.5237L143.564 43.0085L149.991 49.4412C149.863 50.9413 149.661 52.4342 149.387 53.9145ZM29.0471 58.0947C36.8054 58.0947 44.1015 55.0737 49.5887 49.5891C55.076 44.1018 58.0943 36.8056 58.0943 29.0473C58.0943 21.2891 55.0681 13.9929 49.5808 8.50823C44.0962 3.02356 36.8027 0 29.0445 0C21.2863 0 13.9954 3.02092 8.51081 8.50823C3.02354 13.9929 0 21.2891 0 29.0473C0 36.8056 3.0209 44.1044 8.50817 49.5891C11.1995 52.2941 14.4004 54.4387 17.9259 55.8987C21.4514 57.3586 25.2313 58.105 29.0471 58.0947ZM46.1612 11.9332C50.5344 16.292 53.062 22.1671 53.2196 28.3396C47.0822 28.078 41.2671 25.5201 36.9268 21.1729C32.5771 16.8332 30.0188 11.0162 29.7601 4.87731C35.9304 5.03557 41.8032 7.5621 46.1612 11.9332ZM11.9331 11.9305C15.9139 7.92987 21.1764 5.45891 26.7973 4.95125C27.0727 11.851 29.9371 18.3937 34.8201 23.2762C39.703 28.1587 46.246 31.0225 53.1457 31.2972C52.6399 36.9199 50.1677 42.1842 46.1638 46.1641C42.1819 50.1648 36.9186 52.6357 31.297 53.1434C31.0223 46.2448 28.1578 39.7031 23.2747 34.8225C18.3947 29.9384 11.8526 27.0738 4.95386 26.8001C5.45698 21.1765 7.92852 15.9107 11.9331 11.9305ZM21.1701 36.9218C25.5168 41.2635 28.0746 47.0793 28.3368 53.2174C22.1651 53.0606 16.2904 50.535 11.9304 46.1641C7.55798 41.8052 5.03213 35.9298 4.87728 29.7577C11.0141 30.0196 16.8288 32.5764 21.1701 36.9218Z" fill="#316FFF"/>
</svg>
