<svg width="164" height="168" viewBox="0 0 164 168" fill="none" xmlns="http://www.w3.org/2000/svg">
<mask id="mask0_884_8893" style="mask-type:alpha" maskUnits="userSpaceOnUse" x="0" y="0" width="164" height="168">
<path d="M104.025 44.6101C109.277 44.6101 114.315 42.5235 118.029 38.8093C121.743 35.0951 123.83 30.0576 123.83 24.805C123.83 19.5524 121.743 14.5149 118.029 10.8008C114.315 7.0866 109.277 5 104.025 5C98.7721 5 93.7346 7.0866 90.0205 10.8008C86.3063 14.5149 84.2197 19.5524 84.2197 24.805C84.2197 30.0576 86.3063 35.0951 90.0205 38.8093C93.7346 42.5235 98.7721 44.6101 104.025 44.6101Z" fill="white" stroke="white" stroke-width="8.33333" stroke-miterlimit="2"/>
<path d="M151.557 84.2211C154.708 84.2211 157.731 82.9692 159.959 80.7407C162.188 78.5122 163.44 75.4897 163.44 72.3381C163.44 69.1865 162.188 66.164 159.959 63.9355C157.731 61.707 154.708 60.4551 151.557 60.4551C148.405 60.4551 145.383 61.707 143.154 63.9355C140.926 66.164 139.674 69.1865 139.674 72.3381C139.674 75.4897 140.926 78.5122 143.154 80.7407C145.383 82.9692 148.405 84.2211 151.557 84.2211Z" fill="white"/>
<path d="M52.532 84.2193L43.5405 128.82C43.3468 130.026 42.8766 131.172 42.1669 132.166C41.4572 133.16 40.5271 133.977 39.4494 134.552C38.3716 135.128 37.1754 135.446 35.9543 135.482C34.7331 135.519 33.5201 135.272 32.4101 134.762L5 123.829M139.674 107.985L83.2694 64.6915C80.2194 62.4338 76.0207 62.6714 73.2084 65.2065L54.0372 82.7537C53.5994 83.1495 53.256 83.6384 53.0323 84.1844C52.8086 84.7305 52.7102 85.3198 52.7444 85.9089C52.7786 86.498 52.9445 87.072 53.23 87.5885C53.5154 88.105 53.9131 88.5509 54.3937 88.8933L92.142 116.501C94.9939 118.601 96.1426 122.364 94.8751 125.691L80.7343 163.439" stroke="white" stroke-width="8.33333" stroke-miterlimit="2" stroke-linecap="round" stroke-linejoin="round"/>
</mask>
<g mask="url(#mask0_884_8893)">
<path d="M-10.8438 -10.8438H179.284V179.285H-10.8438V-10.8438Z" fill="#316FFF"/>
</g>
</svg>
